<?xml version="1.0" encoding="utf-8"?>
<!-- Generator: Adobe Illustrator 17.0.0, SVG Export Plug-In . SVG Version: 6.00 Build 0)  -->
<!DOCTYPE svg PUBLIC "-//W3C//DTD SVG 1.1//EN" "http://www.w3.org/Graphics/SVG/1.1/DTD/svg11.dtd">
<svg version="1.1" id="Layer_1" xmlns="http://www.w3.org/2000/svg" xmlns:xlink="http://www.w3.org/1999/xlink" x="0px" y="0px"
	 width="657.36px" height="185.776px" viewBox="0 0 657.36 185.776" enable-background="new 0 0 657.36 185.776"
	 xml:space="preserve">
<g>
	<path fill="#FFFFFF" d="M184.198,92.888c0,50.318-40.791,91.109-91.109,91.109S1.979,143.206,1.979,92.888
		S42.77,1.779,93.089,1.779S184.198,42.57,184.198,92.888z M93.089,14.029c-43.553,0-78.859,35.307-78.859,78.859
		s35.307,78.859,78.859,78.859s78.859-35.307,78.859-78.859S136.642,14.029,93.089,14.029z"/>
	<path fill="#FFFFFF" d="M92.252,55.793c-1.78-7.31,3.79-12.58,7.59-17.97c0.87,0.19,2.61,0.58,3.48,0.77
		c-3.17,5.94-13.48,9.68-8.36,17.83c17.24,1.76,28.07,18.78,28.66,35.01c0.98,12.46-2.43,26.07-12.09,34.58
		c-5.52,5.13-13.38,6.08-20.56,6.78c-9.91-0.57-17.3-8.74-21.37-17.15c-7.08-15.27-7.14-34.29,1.79-48.82
		C75.712,59.693,83.722,54.733,92.252,55.793z"/>
	<path fill="#FFFFFF" d="M222.282,54.133c4-0.02,8-0.02,12.01,0.02c0,24.27,0.04,48.54-0.02,72.81c-4,0.02-8,0.03-12,0.03
		C222.252,102.703,222.232,78.413,222.282,54.133z"/>
	<path fill="#FFFFFF" d="M488.792,54.153c4.16-0.09,8.33-0.08,12.49,0.27c-0.08,24.17-0.04,48.33-0.03,72.5
		c-4.17,0.08-8.34,0.08-12.5,0C488.762,102.663,488.692,78.403,488.792,54.153z"/>
	<g>
		<path fill="#FFFFFF" d="M257.462,76.963c10.38-6.67,25.97-4.41,33.05,6.02c4.69,6.31,5.65,14.35,5.25,21.98
			c-12.96,0.11-25.92-0.13-38.88,0.13c1.24,6.83,6.84,13.13,14.14,13.12c5.97,0.75,11.23-2.51,15.78-5.94
			c2.27,2.08,4.57,4.15,6.86,6.22c-5.75,6.31-14.06,10.32-22.71,9.63c-13.63,0.23-25.95-11.95-25.72-25.61
			C244.332,92.623,248.972,82.283,257.462,76.963z M256.882,96.883c9.08,0.11,18.15,0.11,27.23,0c-0.86-5.48-3.66-11.37-9.37-13.09
			C266.012,80.353,257.612,88.423,256.882,96.883z"/>
	</g>
	<g>
		<path fill="#FFFFFF" d="M307.122,77.853c9.46-4.14,20.4-5.66,30.42-2.79c8.23,2.47,12.88,11.12,12.87,19.34
			c0.06,10.85,0,21.69,0,32.54c-3.97,0.05-7.94,0.05-11.91,0.04c-0.04-1.97-0.06-3.94-0.09-5.91c-7.8,7.64-20.99,9.66-29.98,2.96
			c-8.28-5.91-7.85-19.96,0.67-25.45c8.8-5.79,19.96-3.86,29.71-2.13c-0.34-3.99-1.54-8.44-5.42-10.37
			c-7.32-3.66-15.69-1.1-22.96,1.35C309.292,84.253,308.182,81.063,307.122,77.853z M319.342,103.873
			c-4.98,1.84-6.71,9.22-2.38,12.65c8.55,6.7,24.56-0.32,21.69-12.2C332.392,102.923,325.542,101.603,319.342,103.873z"/>
	</g>
	<path fill="#FFFFFF" d="M375.382,81.823c7.89-12.33,29.54-11.36,33.84,3.48c2.67,13.64,0.57,27.8,1.21,41.64
		c-3.99,0.05-7.99,0.05-11.98,0.06c-0.33-11.13,0.37-22.3-0.33-33.4c-0.67-7.32-9.2-11.54-15.66-8.55
		c-4.17,1.63-7.11,5.91-7.09,10.39c-0.21,10.5,0.06,21.01-0.11,31.51c-3.99,0.03-7.98,0.03-11.98,0.03
		c0.01-17.59-0.04-35.18,0.03-52.77c3.98-0.02,7.96-0.02,11.95,0.02C375.292,76.763,375.322,79.293,375.382,81.823z"/>
	<g>
		<path fill="#FFFFFF" d="M435.672,82.503c6.21-7.95,17.39-12.03,26.85-7.42c14.74,6.2,18.81,25.72,12.38,39.27
			c-4.4,9.53-15.54,15.55-25.91,13.3c-5.37-0.91-9.55-4.64-13.36-8.24c-0.11,7.85-0.03,15.7-0.05,23.56c-4.02,0-8.04,0-12.06-0.02
			c0.05-22.89,0.02-45.79,0.02-68.68c3.99-0.09,7.99-0.08,11.99-0.06C435.562,76.973,435.582,79.733,435.672,82.503z
			 M444.572,85.093c-11.19,5.01-12.44,22.46-2.7,29.52c5.51,4.4,14.19,3.9,19.08-1.19c6.2-7,6.33-18.88-0.32-25.63
			C456.572,83.613,449.792,82.663,444.572,85.093z"/>
	</g>
	<path fill="#FFFFFF" d="M587.272,81.833c7.17-11.15,25.09-11.61,31.79,0.26c5.7-7.16,15.57-11.06,24.45-7.84
		c7.74,2.26,11.77,10.55,11.83,18.15c0.09,11.52-0.01,23.05,0.02,34.57c-4.05,0.01-8.09,0.03-12.13-0.01
		c-0.04-10.18,0.13-20.37-0.04-30.55c0.02-5.14-2.68-11.12-8.28-12c-6.52-1.7-13.4,3.7-13.53,10.37
		c-0.32,10.72,0.04,21.45-0.15,32.18c-4,0.02-8,0.02-12,0.03c-0.09-10.2,0.16-20.4-0.08-30.6c-0.07-4.86-2.31-10.46-7.46-11.76
		c-6.65-2.31-14.17,3.21-14.33,10.14c-0.32,10.72,0.02,21.46-0.14,32.19c-4,0.03-8,0.03-11.99,0.02
		c0.04-17.59-0.04-35.18,0.04-52.77c3.97-0.03,7.95-0.02,11.93,0.01C587.222,76.763,587.242,79.293,587.272,81.833z"/>
	<path fill="#FFFFFF" d="M514.412,74.213c4.01-0.03,8.03-0.03,12.04,0.03c0.1,10.75-0.21,21.52,0.11,32.27
		c0.14,5.54,4.67,10.83,10.45,10.58c6.6,0.79,12.59-5.1,12.49-11.61c0.17-10.42-0.04-20.84,0.08-31.25
		c3.99-0.05,7.99-0.05,11.99-0.01c0.04,17.58,0.02,35.17,0.01,52.76c-4.02,0-8.03,0.01-12.03-0.07c-0.01-2.52-0.01-5.03-0.02-7.55
		c-5.09,6.84-13.97,10.63-22.33,7.95c-7.88-1.93-12.9-9.96-12.78-17.81C514.332,97.743,514.392,85.973,514.412,74.213z"/>
</g>
</svg>
